# xmcd
#
# Track frame offsets:
#	150
#	18390
#	40970
#	72582
#	87247
#	116217
#	138947
#	161737
#
# Disc length: 2398 seconds
#
# Revision: 0
# Processed by: cddbd v1.4PL0 Copyright (c) Steve Scherf et al.
# Submitted via: dBpowerAMP V4.0
#
DISCID=6e095c08
DTITLE=Jesse Colin Young - Song for Juli
DYEAR=1973
DGENRE=Country
TTITLE0=Mornin Sun
TTITLE1=Song For Juli
TTITLE2=Ridgetop
TTITLE3=Evenin
TTITLE4=Miss Hesitation
TTITLE5=T-Bone Shuffle
TTITLE6=Lafayette Waltz/Jambalaya
TTITLE7=Country Home
EXTD=Track "Lafayette Waltz" runs into "Jambalaya" 
EXTT0=
EXTT1=
EXTT2=
EXTT3=
EXTT4=
EXTT5=
EXTT6=
EXTT7=
PLAYORDER=
